<svg width="26" height="27" viewBox="0 0 26 27" fill="none" xmlns="http://www.w3.org/2000/svg">
<g id="add_circle">
<mask id="mask0_924_3692" style="mask-type:alpha" maskUnits="userSpaceOnUse" x="0" y="0" width="26" height="27">
<rect id="Bounding box" x="0.650391" y="0.913086" width="24.699" height="25.5652" fill="#D9D9D9"/>
</mask>
<g mask="url(#mask0_924_3692)">
<path id="add_circle_2" d="M11.9706 19.0217H14.0289V14.7608H18.1454V12.6304H14.0289V8.36954H11.9706V12.6304H7.85413V14.7608H11.9706V19.0217ZM12.9998 24.3478C11.5761 24.3478 10.2383 24.0682 8.98617 23.5089C7.73406 22.9497 6.6449 22.1907 5.71869 21.232C4.79248 20.2733 4.05922 19.146 3.51893 17.85C2.97864 16.554 2.7085 15.1692 2.7085 13.6956C2.7085 12.2221 2.97864 10.8373 3.51893 9.54128C4.05922 8.24527 4.79248 7.11791 5.71869 6.15922C6.6449 5.20052 7.73406 4.44155 8.98617 3.88232C10.2383 3.32308 11.5761 3.04346 12.9998 3.04346C14.4234 3.04346 15.7612 3.32308 17.0134 3.88232C18.2655 4.44155 19.3546 5.20052 20.2808 6.15922C21.207 7.11791 21.9403 8.24527 22.4806 9.54128C23.0209 10.8373 23.291 12.2221 23.291 13.6956C23.291 15.1692 23.0209 16.554 22.4806 17.85C21.9403 19.146 21.207 20.2733 20.2808 21.232C19.3546 22.1907 18.2655 22.9497 17.0134 23.5089C15.7612 24.0682 14.4234 24.3478 12.9998 24.3478ZM12.9998 22.2174C15.2981 22.2174 17.2449 21.3918 18.84 19.7407C20.4352 18.0897 21.2328 16.0746 21.2328 13.6956C21.2328 11.3166 20.4352 9.30161 18.84 7.65052C17.2449 5.99944 15.2981 5.17389 12.9998 5.17389C10.7014 5.17389 8.75461 5.99944 7.15947 7.65052C5.56432 9.30161 4.76675 11.3166 4.76675 13.6956C4.76675 16.0746 5.56432 18.0897 7.15947 19.7407C8.75461 21.3918 10.7014 22.2174 12.9998 22.2174Z" fill="#EAE9FC"/>
</g>
</g>
</svg>
