<svg width="16" height="16" viewBox="0 0 16 16" fill="none" xmlns="http://www.w3.org/2000/svg">
<g id="Calendar">
<path id="Fill 1" opacity="0.4" fill-rule="evenodd" clip-rule="evenodd" d="M5.28604 2.46544H10.7462V1.32129H5.28604V2.46544ZM4.04413 1.36839V1.37409C3.6179 1.40898 3.19625 1.48516 2.78603 1.59979V1.59552C2.77384 1.60013 2.76236 1.60368 2.75134 1.60709C2.73687 1.61157 2.7232 1.6158 2.70979 1.62186C2.677 1.62898 2.64497 1.63966 2.61447 1.65319C2.5245 1.67953 2.43453 1.71086 2.34989 1.7429C2.3274 1.75073 2.30491 1.7598 2.28242 1.76888L2.28241 1.76888C2.25992 1.77796 2.23743 1.78704 2.21493 1.79487C2.18406 1.80804 2.15185 1.82245 2.11964 1.83687L2.11962 1.83688L2.11962 1.83688C2.0874 1.8513 2.05519 1.86571 2.02431 1.87888L1.87181 1.95791C1.84362 1.97086 1.81752 1.98603 1.79089 2.00152L1.79089 2.00152C1.77503 2.01075 1.75898 2.02008 1.74219 2.02911C1.51268 2.16225 1.29995 2.31818 1.10781 2.49546L1.09637 2.50614C1.07113 2.53262 1.046 2.55831 1.02121 2.58365L1.02121 2.58365C0.97934 2.62645 0.938441 2.66826 0.899647 2.71119L0.88821 2.72116C0.264498 3.4958 -0.0481205 4.45056 0.00601584 5.41815V5.72501H1.23743V5.4153C1.23743 4.06681 1.71474 3.22738 2.77688 2.79734C3.18253 2.64284 3.61104 2.54744 4.04718 2.51255H4.05862V1.37338L4.04413 1.36839ZM15.1093 2.70709L15.1147 2.71705C15.7376 3.4924 16.0487 4.44788 15.9938 5.41547V5.72518H14.7632V5.40763C14.7891 4.83662 14.6618 4.26846 14.3918 3.75512C14.1326 3.31583 13.7178 2.97479 13.2168 2.78968C12.8181 2.63517 12.3956 2.53906 11.9648 2.50488V1.37141C12.3911 1.40701 12.8127 1.48248 13.2237 1.5971V1.59141C13.2468 1.60084 13.2644 1.60645 13.2947 1.61607L13.3 1.61775C13.314 1.62222 13.3271 1.62668 13.34 1.6311C13.358 1.63724 13.3757 1.64328 13.3953 1.64908C13.4796 1.67397 13.5584 1.70331 13.6395 1.7335L13.6537 1.73879C13.6912 1.75062 13.7264 1.7653 13.7582 1.77852C13.7685 1.7828 13.7784 1.78693 13.7879 1.79076C13.855 1.81711 13.9237 1.84843 13.9786 1.87478C14.0152 1.89188 14.0508 1.91018 14.0843 1.92734C14.1024 1.93662 14.1198 1.94556 14.1364 1.95381C14.1637 1.96739 14.1875 1.98191 14.2103 1.99588C14.227 2.00609 14.2432 2.01599 14.2599 2.02501C14.4902 2.15886 14.7052 2.31549 14.8996 2.49135L14.9065 2.50203C14.9782 2.56682 15.046 2.63518 15.1093 2.70709Z" fill="#C9131E"/>
<path id="Fill 4" d="M12.0001 0.573533V3.09472C12.0001 3.41238 11.7137 3.66968 11.3601 3.66968C11.0065 3.66968 10.7201 3.41238 10.7201 3.09472V0.579283C10.7169 0.261619 11.0017 0.00216965 11.3553 1.35652e-05C11.7089 -0.00214252 11.9977 0.252995 12.0001 0.570658V0.573533Z" fill="#C9131E"/>
<path id="Fill 6" d="M5.28 0.582373V3.09733C5.28 3.41637 4.99325 3.67505 4.6396 3.67505C4.28595 3.67505 4 3.41637 4 3.09733V0.582373C4 0.263333 4.28595 0.00537109 4.6396 0.00537109C4.99325 0.00537109 5.28 0.263333 5.28 0.582373Z" fill="#C9131E"/>
<path id="Fill 8" fill-rule="evenodd" clip-rule="evenodd" d="M0 11.9284V5.7251H16V11.9284C16 14.6335 14.3214 16.0002 10.9947 16.0002H4.99761C1.67859 16.0002 0 14.6335 0 11.9284ZM3.60897 9.17448C3.60897 9.54979 3.93706 9.85429 4.34144 9.85429C4.75346 9.85429 5.08155 9.54271 5.07392 9.1674C5.07392 8.79209 4.74583 8.48759 4.34907 8.48759H4.34144C3.93706 8.48759 3.60897 8.79917 3.60897 9.17448ZM7.2638 9.17448C7.2638 9.54979 7.59951 9.85429 8.0039 9.85429C8.40829 9.85429 8.73638 9.54979 8.73638 9.1674C8.73638 8.79917 8.40829 8.49467 8.0039 8.48759H7.99627C7.59189 8.49467 7.2638 8.79917 7.2638 9.17448ZM11.6586 9.85404C11.2542 9.85404 10.9261 9.54954 10.9261 9.17422C10.9261 8.79891 11.2466 8.49441 11.6586 8.49441C12.063 8.49441 12.3911 8.79891 12.3911 9.17422C12.3911 9.54954 12.063 9.85404 11.6586 9.85404ZM11.6583 12.7572C11.2539 12.7572 10.9258 12.4527 10.9182 12.0774C10.9182 11.7021 11.2463 11.3976 11.6507 11.3976H11.6583C12.0627 11.3976 12.3908 11.7021 12.3908 12.0774C12.3908 12.4527 12.0627 12.7572 11.6583 12.7572ZM8.0039 12.7573C7.59951 12.7573 7.26379 12.4528 7.26379 12.0775C7.26379 11.7021 7.59188 11.3976 7.99627 11.3906H8.0039C8.40829 11.3976 8.72874 11.7021 8.73637 12.0704C8.73637 12.4528 8.40829 12.7573 8.0039 12.7573ZM4.34149 12.7573C3.9371 12.7573 3.60902 12.4528 3.60902 12.0775C3.60139 11.7021 3.92947 11.3906 4.34149 11.3906C4.74588 11.3906 5.07397 11.6951 5.07397 12.0704C5.07397 12.4457 4.74588 12.7573 4.34149 12.7573Z" fill="#C9131E"/>
</g>
</svg>
