<svg width="17" height="17" viewBox="0 0 17 17" fill="none" xmlns="http://www.w3.org/2000/svg">
<g id="vuesax/linear/camera">
<g id="camera">
<path id="Vector" d="M5.00662 15.1668H11.9933C13.8333 15.1668 14.5666 14.0402 14.6533 12.6668L14.9999 7.16016C15.0933 5.72016 13.9466 4.50016 12.4999 4.50016C12.0933 4.50016 11.7199 4.26683 11.5333 3.90683L11.0533 2.94016C10.7466 2.3335 9.94662 1.8335 9.26662 1.8335H7.73995C7.05328 1.8335 6.25328 2.3335 5.94662 2.94016L5.46662 3.90683C5.27995 4.26683 4.90662 4.50016 4.49995 4.50016C3.05328 4.50016 1.90662 5.72016 1.99995 7.16016L2.34662 12.6668C2.42662 14.0402 3.16662 15.1668 5.00662 15.1668Z" stroke="#EAE9FC" stroke-width="1.5" stroke-linecap="round" stroke-linejoin="round"/>
<path id="Vector_2" d="M7.5 5.8335H9.5" stroke="#EAE9FC" stroke-width="1.5" stroke-linecap="round" stroke-linejoin="round"/>
<path id="Vector_3" d="M8.49992 12.4998C9.69325 12.4998 10.6666 11.5265 10.6666 10.3332C10.6666 9.13984 9.69325 8.1665 8.49992 8.1665C7.30659 8.1665 6.33325 9.13984 6.33325 10.3332C6.33325 11.5265 7.30659 12.4998 8.49992 12.4998Z" stroke="#EAE9FC" stroke-width="1.5" stroke-linecap="round" stroke-linejoin="round"/>
</g>
</g>
</svg>
