<svg width="16" height="16" viewBox="0 0 16 16" fill="none" xmlns="http://www.w3.org/2000/svg">
<g id="vuesax/linear/category-2">
<g id="category-2">
<path id="Vector" d="M11.3333 6.66634H12.6666C13.9999 6.66634 14.6666 5.99967 14.6666 4.66634V3.33301C14.6666 1.99967 13.9999 1.33301 12.6666 1.33301H11.3333C9.99992 1.33301 9.33325 1.99967 9.33325 3.33301V4.66634C9.33325 5.99967 9.99992 6.66634 11.3333 6.66634Z" stroke="#EAE9FC" stroke-width="1.5" stroke-miterlimit="10" stroke-linecap="round" stroke-linejoin="round"/>
<path id="Vector_2" d="M3.33325 14.6663H4.66659C5.99992 14.6663 6.66658 13.9997 6.66658 12.6663V11.333C6.66658 9.99967 5.99992 9.33301 4.66659 9.33301H3.33325C1.99992 9.33301 1.33325 9.99967 1.33325 11.333V12.6663C1.33325 13.9997 1.99992 14.6663 3.33325 14.6663Z" stroke="#EAE9FC" stroke-width="1.5" stroke-miterlimit="10" stroke-linecap="round" stroke-linejoin="round"/>
<path id="Vector_3" d="M3.99992 6.66634C5.47268 6.66634 6.66658 5.47243 6.66658 3.99967C6.66658 2.52691 5.47268 1.33301 3.99992 1.33301C2.52716 1.33301 1.33325 2.52691 1.33325 3.99967C1.33325 5.47243 2.52716 6.66634 3.99992 6.66634Z" stroke="#EAE9FC" stroke-width="1.5" stroke-miterlimit="10" stroke-linecap="round" stroke-linejoin="round"/>
<path id="Vector_4" d="M11.9999 14.6663C13.4727 14.6663 14.6666 13.4724 14.6666 11.9997C14.6666 10.5269 13.4727 9.33301 11.9999 9.33301C10.5272 9.33301 9.33325 10.5269 9.33325 11.9997C9.33325 13.4724 10.5272 14.6663 11.9999 14.6663Z" stroke="#EAE9FC" stroke-width="1.5" stroke-miterlimit="10" stroke-linecap="round" stroke-linejoin="round"/>
</g>
</g>
</svg>
