<svg width="25" height="25" viewBox="0 0 25 25" fill="none" xmlns="http://www.w3.org/2000/svg">
<g id="counter_7">
<mask id="mask0_349_856" style="mask-type:alpha" maskUnits="userSpaceOnUse" x="0" y="0" width="25" height="25">
<rect id="Bounding box" x="0.466064" y="0.0107422" width="24" height="24" fill="#D9D9D9"/>
</mask>
<g mask="url(#mask0_349_856)">
<path id="counter_7_2" d="M11.4661 17.0107H13.4661L15.4161 9.26074C15.4494 9.17741 15.4661 9.10241 15.4661 9.03574V8.81074C15.4661 8.32741 15.2952 7.90658 14.9536 7.54824C14.6119 7.18991 14.1994 7.01074 13.7161 7.01074H9.46606V9.01074H13.4661L11.4661 17.0107ZM12.4661 22.0107C11.0827 22.0107 9.78273 21.7482 8.56606 21.2232C7.3494 20.6982 6.29106 19.9857 5.39106 19.0857C4.49106 18.1857 3.77856 17.1274 3.25356 15.9107C2.72856 14.6941 2.46606 13.3941 2.46606 12.0107C2.46606 10.6274 2.72856 9.32741 3.25356 8.11074C3.77856 6.89408 4.49106 5.83574 5.39106 4.93574C6.29106 4.03574 7.3494 3.32324 8.56606 2.79824C9.78273 2.27324 11.0827 2.01074 12.4661 2.01074C13.8494 2.01074 15.1494 2.27324 16.3661 2.79824C17.5827 3.32324 18.6411 4.03574 19.5411 4.93574C20.4411 5.83574 21.1536 6.89408 21.6786 8.11074C22.2036 9.32741 22.4661 10.6274 22.4661 12.0107C22.4661 13.3941 22.2036 14.6941 21.6786 15.9107C21.1536 17.1274 20.4411 18.1857 19.5411 19.0857C18.6411 19.9857 17.5827 20.6982 16.3661 21.2232C15.1494 21.7482 13.8494 22.0107 12.4661 22.0107ZM12.4661 20.0107C14.6994 20.0107 16.5911 19.2357 18.1411 17.6857C19.6911 16.1357 20.4661 14.2441 20.4661 12.0107C20.4661 9.77741 19.6911 7.88574 18.1411 6.33574C16.5911 4.78574 14.6994 4.01074 12.4661 4.01074C10.2327 4.01074 8.34106 4.78574 6.79106 6.33574C5.24106 7.88574 4.46606 9.77741 4.46606 12.0107C4.46606 14.2441 5.24106 16.1357 6.79106 17.6857C8.34106 19.2357 10.2327 20.0107 12.4661 20.0107Z" fill="#1C1818"/>
</g>
</g>
</svg>
