<svg width="16" height="17" viewBox="0 0 16 17" fill="none" xmlns="http://www.w3.org/2000/svg">
<g id="download">
<mask id="mask0_551_835" style="mask-type:alpha" maskUnits="userSpaceOnUse" x="0" y="0" width="16" height="17">
<rect id="Bounding box" y="0.5" width="16" height="16" fill="#D9D9D9"/>
</mask>
<g mask="url(#mask0_551_835)">
<path id="download_2" d="M8.00008 11.1665L4.66675 7.83317L5.60008 6.8665L7.33342 8.59984V3.1665H8.66675V8.59984L10.4001 6.8665L11.3334 7.83317L8.00008 11.1665ZM4.00008 13.8332C3.63341 13.8332 3.31953 13.7026 3.05841 13.4415C2.7973 13.1804 2.66675 12.8665 2.66675 12.4998V10.4998H4.00008V12.4998H12.0001V10.4998H13.3334V12.4998C13.3334 12.8665 13.2029 13.1804 12.9417 13.4415C12.6806 13.7026 12.3667 13.8332 12.0001 13.8332H4.00008Z" fill="#EAE9FC"/>
</g>
</g>
</svg>
