<svg width="24" height="24" viewBox="0 0 24 24" fill="none" xmlns="http://www.w3.org/2000/svg">
<g id="Group 18559">
<g id="super g">
<path id="Shape" d="M12.0004 4.6405C13.7199 4.61405 15.3827 5.25463 16.64 6.42781L20.0266 3.11627C17.8538 1.08036 14.9777 -0.0360252 12.0004 0.000887017C9.77587 0.000372996 7.59503 0.618698 5.7018 1.78671C3.80856 2.95473 2.27756 4.62638 1.28003 6.61473L5.16041 9.62743C5.63489 8.18472 6.55026 6.92735 7.77745 6.03263C9.00464 5.13791 10.4817 4.65098 12.0004 4.6405Z" fill="#E43E2B"/>
<path id="Shape_2" d="M23.52 12.2678C23.5341 11.4429 23.4489 10.6192 23.2662 9.8147H12V14.2685H18.6138C18.4884 15.0494 18.2063 15.7968 17.7845 16.4659C17.3628 17.1349 16.81 17.7117 16.1596 18.1616L19.9465 21.0947C21.1267 19.9552 22.0549 18.5809 22.671 17.0605C23.2871 15.5401 23.5775 13.9074 23.5235 12.2678H23.52Z" fill="#3B7DED"/>
<path id="Shape_3" d="M5.17424 14.3739C4.91187 13.6099 4.77662 12.8081 4.77386 12.0004C4.77864 11.194 4.90905 10.3932 5.1604 9.62695L1.28001 6.61426C0.438388 8.28518 0 10.1301 0 12.001C0 13.8719 0.438388 15.7168 1.28001 17.3877L5.17424 14.3739Z" fill="#F0B501"/>
<path id="Shape_4" d="M12.0005 24.0008C14.9235 24.0835 17.7672 23.0434 19.947 21.0943L16.1601 18.1612C14.9322 18.9844 13.4781 19.4038 12.0005 19.3612C10.4831 19.3522 9.00707 18.8656 7.78181 17.9704C6.55654 17.0753 5.64424 15.8171 5.17433 14.3743L1.29395 17.3881C2.28879 19.3756 3.81728 21.0468 5.70823 22.2148C7.59918 23.3827 9.77794 24.0011 12.0005 24.0008Z" fill="#2BA24C"/>
</g>
</g>
</svg>
