<svg width="25" height="25" viewBox="0 0 25 25" fill="none" xmlns="http://www.w3.org/2000/svg">
<g id="local_activity">
<mask id="mask0_349_901" style="mask-type:alpha" maskUnits="userSpaceOnUse" x="0" y="0" width="25" height="25">
<rect id="Bounding box" x="0.689453" y="0.347656" width="24" height="24" fill="#D9D9D9"/>
</mask>
<g mask="url(#mask0_349_901)">
<path id="local_activity_2" d="M9.88945 16.3477L12.6895 14.2477L15.4395 16.3477L14.3895 12.9477L17.1895 10.7477H13.7895L12.6895 7.34766L11.5895 10.7477H8.18945L10.9395 12.9477L9.88945 16.3477ZM4.68945 20.3477C4.13945 20.3477 3.66862 20.1518 3.27695 19.7602C2.88529 19.3685 2.68945 18.8977 2.68945 18.3477V14.9727C2.68945 14.7893 2.74779 14.631 2.86445 14.4977C2.98112 14.3643 3.13112 14.281 3.31445 14.2477C3.71445 14.1143 4.04362 13.8727 4.30195 13.5227C4.56029 13.1727 4.68945 12.781 4.68945 12.3477C4.68945 11.9143 4.56029 11.5227 4.30195 11.1727C4.04362 10.8227 3.71445 10.581 3.31445 10.4477C3.13112 10.4143 2.98112 10.331 2.86445 10.1977C2.74779 10.0643 2.68945 9.90599 2.68945 9.72266V6.34766C2.68945 5.79766 2.88529 5.32682 3.27695 4.93516C3.66862 4.54349 4.13945 4.34766 4.68945 4.34766H20.6895C21.2395 4.34766 21.7103 4.54349 22.102 4.93516C22.4936 5.32682 22.6895 5.79766 22.6895 6.34766V9.72266C22.6895 9.90599 22.6311 10.0643 22.5145 10.1977C22.3978 10.331 22.2478 10.4143 22.0645 10.4477C21.6645 10.581 21.3353 10.8227 21.077 11.1727C20.8186 11.5227 20.6895 11.9143 20.6895 12.3477C20.6895 12.781 20.8186 13.1727 21.077 13.5227C21.3353 13.8727 21.6645 14.1143 22.0645 14.2477C22.2478 14.281 22.3978 14.3643 22.5145 14.4977C22.6311 14.631 22.6895 14.7893 22.6895 14.9727V18.3477C22.6895 18.8977 22.4936 19.3685 22.102 19.7602C21.7103 20.1518 21.2395 20.3477 20.6895 20.3477H4.68945ZM4.68945 18.3477H20.6895V15.7977C20.0728 15.431 19.5853 14.9435 19.227 14.3352C18.8686 13.7268 18.6895 13.0643 18.6895 12.3477C18.6895 11.631 18.8686 10.9685 19.227 10.3602C19.5853 9.75182 20.0728 9.26432 20.6895 8.89766V6.34766H4.68945V8.89766C5.30612 9.26432 5.79362 9.75182 6.15195 10.3602C6.51029 10.9685 6.68945 11.631 6.68945 12.3477C6.68945 13.0643 6.51029 13.7268 6.15195 14.3352C5.79362 14.9435 5.30612 15.431 4.68945 15.7977V18.3477Z" fill="#1C1818"/>
</g>
</g>
</svg>
