<svg width="24" height="18" viewBox="0 0 24 18" fill="none" xmlns="http://www.w3.org/2000/svg">
<path id="Mail" d="M21 0H3C2.20435 0 1.44129 0.32981 0.878677 0.916881C0.316068 1.50395 0 2.30019 0 3.13043V14.8696C0 15.6998 0.316068 16.496 0.878677 17.0831C1.44129 17.6702 2.20435 18 3 18H21C21.7956 18 22.5587 17.6702 23.1213 17.0831C23.6839 16.496 24 15.6998 24 14.8696V3.13043C24 2.30019 23.6839 1.50395 23.1213 0.916881C22.5587 0.32981 21.7956 0 21 0ZM20.7225 5.29825L12.4725 12.3417C12.3389 12.4548 12.1721 12.5166 12 12.5166C11.8279 12.5166 11.6611 12.4548 11.5275 12.3417L3.2775 5.29825C3.19004 5.23786 3.11568 5.15899 3.05924 5.06675C3.0028 4.97451 2.96552 4.87095 2.94982 4.76274C2.93412 4.65453 2.94035 4.54409 2.9681 4.43855C2.99585 4.33301 3.0445 4.23472 3.11091 4.15001C3.17732 4.06531 3.26002 3.99609 3.35367 3.94681C3.44731 3.89754 3.54983 3.86931 3.65458 3.86394C3.75933 3.85857 3.864 3.87618 3.96182 3.91565C4.05965 3.95511 4.14845 4.01555 4.2225 4.09305L12 10.7296L19.7775 4.09305C19.9324 3.98606 20.1199 3.94289 20.3036 3.97192C20.4873 4.00094 20.6542 4.10008 20.7718 4.25013C20.8895 4.40018 20.9496 4.59045 20.9405 4.78409C20.9314 4.97774 20.8537 5.16096 20.7225 5.29825Z" fill="#EAE9FC"/>
</svg>
