<svg width="201" height="200" viewBox="0 0 201 200" fill="none" xmlns="http://www.w3.org/2000/svg">
<g id="map-pin_svgrepo.com">
<path id="Vector" fill-rule="evenodd" clip-rule="evenodd" d="M42.7365 127.795L100.5 200L158.264 127.795C169.421 113.849 175.5 96.5192 175.5 78.6583V75C175.5 33.5786 141.921 0 100.5 0C59.0786 0 25.5 33.5786 25.5 75V78.6583C25.5 96.5192 31.5788 113.849 42.7365 127.795ZM100.5 100C114.307 100 125.5 88.8071 125.5 75C125.5 61.1929 114.307 50 100.5 50C86.6929 50 75.5 61.1929 75.5 75C75.5 88.8071 86.6929 100 100.5 100Z" fill="#C9131E"/>
</g>
</svg>
