<svg width="38" height="24" viewBox="0 0 38 24" fill="none" xmlns="http://www.w3.org/2000/svg">
<g id="MasterCard">
<rect id="Rectangle" x="0.5" y="0.5" width="37" height="23" rx="3.5" fill="#333333" stroke="#333333"/>
<path id="Path" d="M22.4792 17.3857H15.6974V6.30713H22.4792V17.3857Z" fill="#FF5F00"/>
<path id="Path_2" d="M16.1319 11.8459C16.1319 9.59854 17.2895 7.59668 19.0921 6.30659C17.7739 5.36322 16.1102 4.80016 14.3021 4.80016C10.0216 4.80016 6.55176 7.95458 6.55176 11.8459C6.55176 15.7372 10.0216 18.8916 14.3021 18.8916C16.1102 18.8916 17.7739 18.3285 19.0921 17.3852C17.2895 16.0951 16.1319 14.0932 16.1319 11.8459Z" fill="#EB001B"/>
<path id="Path_3" d="M31.6256 11.8459C31.6256 15.7372 28.1557 18.8916 23.8753 18.8916C22.0672 18.8916 20.4035 18.3285 19.0847 17.3852C20.8879 16.0951 22.0455 14.0932 22.0455 11.8459C22.0455 9.59854 20.8879 7.59668 19.0847 6.30659C20.4035 5.36322 22.0672 4.80016 23.8753 4.80016C28.1557 4.80016 31.6256 7.95458 31.6256 11.8459Z" fill="#F79E1B"/>
</g>
</svg>
