<svg width="10" height="11" viewBox="0 0 10 11" fill="none" xmlns="http://www.w3.org/2000/svg">
<g id="pace">
<mask id="mask0_349_303" style="mask-type:alpha" maskUnits="userSpaceOnUse" x="0" y="0" width="10" height="11">
<rect id="Bounding box" y="0.5" width="10" height="10" fill="#D9D9D9"/>
</mask>
<g mask="url(#mask0_349_303)">
<path id="pace_2" d="M4.99992 9.66683C4.42353 9.66683 3.88186 9.55745 3.37492 9.3387C2.86797 9.11995 2.427 8.82308 2.052 8.44808C1.677 8.07308 1.38013 7.63211 1.16138 7.12516C0.942627 6.61822 0.833252 6.07655 0.833252 5.50016C0.833252 4.92377 0.942627 4.38211 1.16138 3.87516C1.38013 3.36822 1.677 2.92725 2.052 2.55225C2.427 2.17725 2.86797 1.88037 3.37492 1.66162C3.88186 1.44287 4.42353 1.3335 4.99992 1.3335C5.57631 1.3335 6.11797 1.44287 6.62492 1.66162C7.13186 1.88037 7.57284 2.17725 7.94784 2.55225C8.32284 2.92725 8.61971 3.36822 8.83846 3.87516C9.05721 4.38211 9.16658 4.92377 9.16658 5.50016C9.16658 5.68766 9.15617 5.87169 9.13534 6.05225C9.1145 6.2328 9.07978 6.40988 9.03117 6.5835C8.93395 6.47238 8.8211 6.37863 8.69263 6.30225C8.56416 6.22586 8.42353 6.17377 8.27075 6.146C8.29159 6.04183 8.30721 5.93593 8.31763 5.82829C8.32804 5.72065 8.33325 5.61127 8.33325 5.50016C8.33325 4.56961 8.01034 3.78141 7.3645 3.13558C6.71867 2.48975 5.93047 2.16683 4.99992 2.16683C4.06936 2.16683 3.28117 2.48975 2.63534 3.13558C1.9895 3.78141 1.66659 4.56961 1.66659 5.50016C1.66659 6.43072 1.9895 7.21891 2.63534 7.86475C3.28117 8.51058 4.06936 8.8335 4.99992 8.8335C5.35408 8.8335 5.69263 8.78141 6.01554 8.67725C6.33846 8.57308 6.63533 8.42725 6.90617 8.23975C6.9895 8.3578 7.09193 8.46197 7.21346 8.55225C7.33499 8.64252 7.4652 8.71197 7.60408 8.76058C7.24992 9.0453 6.85235 9.26752 6.41138 9.42725C5.9704 9.58697 5.49992 9.66683 4.99992 9.66683ZM8.02075 8.00016C7.87492 8.00016 7.75166 7.94982 7.65096 7.84912C7.55027 7.74843 7.49992 7.62516 7.49992 7.47933C7.49992 7.3335 7.55027 7.21023 7.65096 7.10954C7.75166 7.00884 7.87492 6.9585 8.02075 6.9585C8.16658 6.9585 8.28985 7.00884 8.39054 7.10954C8.49124 7.21023 8.54158 7.3335 8.54158 7.47933C8.54158 7.62516 8.49124 7.74843 8.39054 7.84912C8.28985 7.94982 8.16658 8.00016 8.02075 8.00016ZM6.37492 7.4585L4.58325 5.66683V3.41683H5.41658V5.3335L6.95825 6.87516L6.37492 7.4585Z" fill="#EAE9FC"/>
</g>
</g>
</svg>
