<svg width="25" height="25" viewBox="0 0 25 25" fill="none" xmlns="http://www.w3.org/2000/svg">
<g id="person">
<mask id="mask0_349_911" style="mask-type:alpha" maskUnits="userSpaceOnUse" x="0" y="0" width="25" height="25">
<rect id="Bounding box" x="0.689453" y="0.347656" width="24" height="24" fill="#D9D9D9"/>
</mask>
<g mask="url(#mask0_349_911)">
<path id="person_2" d="M12.6895 12.3477C11.5895 12.3477 10.6478 11.956 9.86445 11.1727C9.08112 10.3893 8.68945 9.44766 8.68945 8.34766C8.68945 7.24766 9.08112 6.30599 9.86445 5.52266C10.6478 4.73932 11.5895 4.34766 12.6895 4.34766C13.7895 4.34766 14.7311 4.73932 15.5145 5.52266C16.2978 6.30599 16.6895 7.24766 16.6895 8.34766C16.6895 9.44766 16.2978 10.3893 15.5145 11.1727C14.7311 11.956 13.7895 12.3477 12.6895 12.3477ZM4.68945 20.3477V17.5477C4.68945 16.981 4.83529 16.4602 5.12695 15.9852C5.41862 15.5102 5.80612 15.1477 6.28945 14.8977C7.32279 14.381 8.37279 13.9935 9.43945 13.7352C10.5061 13.4768 11.5895 13.3477 12.6895 13.3477C13.7895 13.3477 14.8728 13.4768 15.9395 13.7352C17.0061 13.9935 18.0561 14.381 19.0895 14.8977C19.5728 15.1477 19.9603 15.5102 20.252 15.9852C20.5436 16.4602 20.6895 16.981 20.6895 17.5477V20.3477H4.68945ZM6.68945 18.3477H18.6895V17.5477C18.6895 17.3643 18.6436 17.1977 18.552 17.0477C18.4603 16.8977 18.3395 16.781 18.1895 16.6977C17.2895 16.2477 16.3811 15.9102 15.4645 15.6852C14.5478 15.4602 13.6228 15.3477 12.6895 15.3477C11.7561 15.3477 10.8311 15.4602 9.91445 15.6852C8.99779 15.9102 8.08945 16.2477 7.18945 16.6977C7.03945 16.781 6.91862 16.8977 6.82695 17.0477C6.73529 17.1977 6.68945 17.3643 6.68945 17.5477V18.3477ZM12.6895 10.3477C13.2395 10.3477 13.7103 10.1518 14.102 9.76016C14.4936 9.36849 14.6895 8.89766 14.6895 8.34766C14.6895 7.79766 14.4936 7.32682 14.102 6.93516C13.7103 6.54349 13.2395 6.34766 12.6895 6.34766C12.1395 6.34766 11.6686 6.54349 11.277 6.93516C10.8853 7.32682 10.6895 7.79766 10.6895 8.34766C10.6895 8.89766 10.8853 9.36849 11.277 9.76016C11.6686 10.1518 12.1395 10.3477 12.6895 10.3477Z" fill="#1C1818"/>
</g>
</g>
</svg>
