<svg width="24" height="24" viewBox="0 0 24 24" fill="none" xmlns="http://www.w3.org/2000/svg">
<g id="Phone">
<path id="Vector" d="M19.838 15.162C19.6667 14.9637 19.4546 14.8046 19.2163 14.6956C18.978 14.5866 18.7191 14.5302 18.457 14.5302C18.195 14.5302 17.936 14.5866 17.6977 14.6956C17.4594 14.8046 17.2474 14.9637 17.076 15.162C16.4307 15.7995 15.7855 16.445 15.1481 17.0983C15.0882 17.1798 14.9991 17.2352 14.8995 17.2528C14.7998 17.2704 14.6972 17.2489 14.613 17.1928C14.196 16.9645 13.7474 16.7835 13.3461 16.5316C11.5045 15.3377 9.87209 13.8484 8.51451 12.1237C7.8057 11.2878 7.22006 10.3547 6.77543 9.35295C6.72708 9.26988 6.71079 9.17199 6.72964 9.07774C6.74848 8.98348 6.80117 8.89939 6.87774 8.84132C7.523 8.21162 8.15251 7.57405 8.7899 6.9286C8.99792 6.75576 9.16533 6.53919 9.28023 6.29432C9.39513 6.04945 9.45469 5.78228 9.45469 5.51178C9.45469 5.24128 9.39513 4.97409 9.28023 4.72921C9.16533 4.48434 8.99792 4.26778 8.7899 4.09493L7.27119 2.57578C6.75183 2.05627 6.23247 1.5289 5.69738 1.00152C5.52458 0.805533 5.31207 0.648574 5.07397 0.541058C4.83586 0.433542 4.5776 0.37793 4.31636 0.37793C4.05512 0.37793 3.79686 0.433542 3.55876 0.541058C3.32065 0.648574 3.10814 0.805533 2.93534 1.00152C2.28221 1.6391 1.66056 2.30027 0.99169 2.92997C0.402818 3.48552 0.0505587 4.24665 0.00807261 5.05523C-0.0479836 6.38131 0.188438 7.70349 0.700551 8.92792C1.68204 11.4733 3.09562 13.8299 4.87899 15.894C7.22627 18.7135 10.1477 20.9998 13.4484 22.6003C14.9151 23.3686 16.5202 23.8369 18.1698 23.9778C18.7224 24.0399 19.2818 23.9695 19.8018 23.7724C20.3218 23.5753 20.7874 23.2572 21.16 22.8443C21.7109 22.2225 22.3325 21.6558 22.9227 21.0654C23.1268 20.8918 23.2907 20.6758 23.4031 20.4326C23.5155 20.1893 23.5738 19.9245 23.5738 19.6565C23.5738 19.3885 23.5155 19.1237 23.4031 18.8804C23.2907 18.6371 23.1268 18.4212 22.9227 18.2475C21.905 17.219 20.8767 16.1905 19.838 15.162Z" fill="#EAE9FC"/>
<path id="Vector_2" d="M23.922 10.6681C21.8731 5.88063 18.0482 2.07439 13.2516 0.0497118C13.0584 -0.0224211 12.8447 -0.0158419 12.6563 0.068064C12.4679 0.15197 12.32 0.30648 12.2444 0.498357C12.2032 0.594373 12.1815 0.697641 12.1806 0.80213C12.1797 0.906619 12.1996 1.01025 12.2391 1.10696C12.2787 1.20367 12.3371 1.29153 12.4109 1.36543C12.4848 1.43933 12.5726 1.49778 12.6693 1.53737C17.0908 3.40588 20.6164 6.91556 22.5056 11.3293C22.5901 11.5164 22.7443 11.6632 22.9354 11.7382C23.1266 11.8132 23.3394 11.8105 23.5286 11.7307C23.6254 11.6883 23.7128 11.6268 23.7853 11.5499C23.8579 11.4729 23.9143 11.3822 23.951 11.283C23.9877 11.1838 24.0041 11.0782 23.9991 10.9726C23.9941 10.8669 23.9679 10.7634 23.922 10.6681Z" fill="#EAE9FC"/>
<path id="Vector_3" d="M12.2601 5.81189C14.9402 6.9411 17.0783 9.06566 18.2249 11.739C18.2858 11.8708 18.3819 11.9833 18.5028 12.0639C18.6236 12.1445 18.7644 12.19 18.9095 12.1955C19.0157 12.1947 19.1205 12.1705 19.2163 12.1247C19.3973 12.036 19.5374 11.8812 19.6076 11.6923C19.6779 11.5034 19.6731 11.2947 19.5941 11.1093C18.2944 8.07416 15.8685 5.66164 12.8267 4.37933C12.6394 4.31282 12.4338 4.31968 12.2514 4.39853C12.0689 4.47738 11.923 4.62235 11.8431 4.80437C11.7691 4.99368 11.7712 5.20427 11.8489 5.39207C11.9267 5.57987 12.074 5.73031 12.2601 5.81189Z" fill="#EAE9FC"/>
</g>
</svg>
