<svg width="170" height="158" viewBox="0 0 170 158" fill="none" xmlns="http://www.w3.org/2000/svg">
<g id="schedule 1" clip-path="url(#clip0_437_938)">
<g id="Group">
<g id="Group_2">
<path id="Vector" d="M81.9299 141.313H17.6942C11.4856 141.313 6.45288 136.28 6.45288 130.072V118.83H92.7279L81.9299 141.313Z" fill="#D3DCFB"/>
<path id="Vector_2" d="M152.606 51.3795V98.6073V130.071H17.6942C11.4856 130.071 6.45288 125.038 6.45288 118.83V51.3795L85.1506 23.2749L152.606 51.3795Z" fill="#EBF5FC"/>
<g id="Group_3">
<path id="Vector_3" d="M26.3051 73.8627H20.333C18.878 73.8627 17.6982 72.683 17.6982 71.2279V65.2559C17.6982 63.8008 18.878 62.6211 20.333 62.6211H26.3051C27.7601 62.6211 28.9399 63.8008 28.9399 65.2559V71.2279C28.9399 72.683 27.7601 73.8627 26.3051 73.8627Z" fill="#3C58A0"/>
<path id="Vector_4" d="M48.7887 73.8627H42.8167C41.3616 73.8627 40.1819 72.683 40.1819 71.2279V65.2559C40.1819 63.8008 41.3616 62.6211 42.8167 62.6211H48.7887C50.2438 62.6211 51.4235 63.8008 51.4235 65.2559V71.2279C51.4235 72.683 50.2438 73.8627 48.7887 73.8627Z" fill="#3C58A0"/>
<path id="Vector_5" d="M71.2719 73.8627H65.2998C63.8448 73.8627 62.665 72.683 62.665 71.2279V65.2559C62.665 63.8008 63.8448 62.6211 65.2998 62.6211H71.2719C72.727 62.6211 73.9067 63.8008 73.9067 65.2559V71.2279C73.9067 72.683 72.7273 73.8627 71.2719 73.8627Z" fill="#3C58A0"/>
<path id="Vector_6" d="M93.7555 73.8627H87.7835C86.3284 73.8627 85.1487 72.683 85.1487 71.2279V65.2559C85.1487 63.8008 86.3284 62.6211 87.7835 62.6211H93.7555C95.2106 62.6211 96.3903 63.8008 96.3903 65.2559V71.2279C96.3903 72.683 95.2106 73.8627 93.7555 73.8627Z" fill="#3C58A0"/>
<path id="Vector_7" d="M116.235 73.8627H110.263C108.808 73.8627 107.628 72.683 107.628 71.2279V65.2559C107.628 63.8008 108.808 62.6211 110.263 62.6211H116.235C117.69 62.6211 118.87 63.8008 118.87 65.2559V71.2279C118.87 72.683 117.691 73.8627 116.235 73.8627Z" fill="#3C58A0"/>
<path id="Vector_8" d="M138.719 73.8627H132.747C131.292 73.8627 130.112 72.683 130.112 71.2279V65.2559C130.112 63.8008 131.292 62.6211 132.747 62.6211H138.719C140.174 62.6211 141.353 63.8008 141.353 65.2559V71.2279C141.353 72.683 140.174 73.8627 138.719 73.8627Z" fill="#3C58A0"/>
<path id="Vector_9" d="M26.3051 96.3461H20.333C18.878 96.3461 17.6982 95.1664 17.6982 93.7113V87.7393C17.6982 86.2842 18.878 85.1045 20.333 85.1045H26.3051C27.7601 85.1045 28.9399 86.2842 28.9399 87.7393V93.7113C28.9399 95.1667 27.7601 96.3461 26.3051 96.3461Z" fill="#3C58A0"/>
<path id="Vector_10" d="M48.7887 96.3461H42.8167C41.3616 96.3461 40.1819 95.1664 40.1819 93.7113V87.7393C40.1819 86.2842 41.3616 85.1045 42.8167 85.1045H48.7887C50.2438 85.1045 51.4235 86.2842 51.4235 87.7393V93.7113C51.4235 95.1667 50.2438 96.3461 48.7887 96.3461Z" fill="#3C58A0"/>
<path id="Vector_11" d="M71.2719 96.3461H65.2998C63.8448 96.3461 62.665 95.1664 62.665 93.7113V87.7393C62.665 86.2842 63.8448 85.1045 65.2998 85.1045H71.2719C72.727 85.1045 73.9067 86.2842 73.9067 87.7393V93.7113C73.9067 95.1667 72.7273 96.3461 71.2719 96.3461Z" fill="#3C58A0"/>
<path id="Vector_12" d="M96.3903 96.3461V87.9148C96.3903 86.3626 95.1322 85.1045 93.58 85.1045H87.959C86.4068 85.1045 85.1487 86.3626 85.1487 87.9148V93.5358C85.1487 95.088 86.4071 96.3461 87.959 96.3461H96.3903Z" fill="#3C58A0"/>
<path id="Vector_13" d="M26.3051 118.83H20.333C18.878 118.83 17.6982 117.65 17.6982 116.195V110.223C17.6982 108.768 18.878 107.588 20.333 107.588H26.3051C27.7601 107.588 28.9399 108.768 28.9399 110.223V116.195C28.9399 117.65 27.7601 118.83 26.3051 118.83Z" fill="#3C58A0"/>
<path id="Vector_14" d="M48.7887 118.83H42.8167C41.3616 118.83 40.1819 117.65 40.1819 116.195V110.223C40.1819 108.768 41.3616 107.588 42.8167 107.588H48.7887C50.2438 107.588 51.4235 108.768 51.4235 110.223V116.195C51.4235 117.65 50.2438 118.83 48.7887 118.83Z" fill="#3C58A0"/>
<path id="Vector_15" d="M71.2719 118.83H65.2998C63.8448 118.83 62.665 117.65 62.665 116.195V110.223C62.665 108.768 63.8448 107.588 65.2998 107.588H71.2719C72.727 107.588 73.9067 108.768 73.9067 110.223V116.195C73.9067 117.65 72.7273 118.83 71.2719 118.83Z" fill="#3C58A0"/>
</g>
<path id="Vector_16" d="M138.639 62.6211H132.826C132.475 62.6211 132.14 62.6903 131.831 62.8118C132.837 63.209 133.55 64.1878 133.55 65.3352V71.1482C133.55 72.2957 132.837 73.2745 131.831 73.6717C132.14 73.7936 132.475 73.8627 132.826 73.8627H138.639C140.139 73.8627 141.354 72.6474 141.354 71.1486V65.3356C141.354 63.8364 140.138 62.6211 138.639 62.6211Z" fill="#2A428C"/>
<path id="Vector_17" d="M116.156 62.6211H110.343C109.991 62.6211 109.656 62.6903 109.347 62.8118C110.354 63.209 111.066 64.1878 111.066 65.3352V71.1482C111.066 72.2957 110.353 73.2745 109.347 73.6717C109.656 73.7936 109.991 73.8627 110.343 73.8627H116.156C117.655 73.8627 118.87 72.6474 118.87 71.1486V65.3356C118.87 63.8364 117.655 62.6211 116.156 62.6211Z" fill="#2A428C"/>
<path id="Vector_18" d="M93.6762 62.6211H87.8632C87.5115 62.6211 87.1765 62.6903 86.8679 62.8118C87.8741 63.209 88.5871 64.1878 88.5871 65.3352V71.1482C88.5871 72.2957 87.8741 73.2745 86.8679 73.6717C87.1765 73.7936 87.5115 73.8627 87.8632 73.8627H93.6762C95.1754 73.8627 96.3907 72.6474 96.3907 71.1486V65.3356C96.3904 63.8364 95.1751 62.6211 93.6762 62.6211Z" fill="#2A428C"/>
<path id="Vector_19" d="M71.1926 62.6211H65.3796C65.0278 62.6211 64.6929 62.6903 64.3843 62.8118C65.3904 63.209 66.1035 64.1878 66.1035 65.3352V71.1482C66.1035 72.2957 65.3904 73.2745 64.3843 73.6717C64.6929 73.7936 65.0278 73.8627 65.3796 73.8627H71.1926C72.6918 73.8627 73.907 72.6474 73.907 71.1486V65.3356C73.9067 63.8364 72.6918 62.6211 71.1926 62.6211Z" fill="#2A428C"/>
<path id="Vector_20" d="M48.7089 62.6211H42.8959C42.5442 62.6211 42.2092 62.6903 41.9006 62.8118C42.9068 63.209 43.6195 64.1878 43.6195 65.3352V71.1482C43.6195 72.2957 42.9065 73.2745 41.9006 73.6717C42.2092 73.7936 42.5442 73.8627 42.8959 73.8627H48.7089C50.2081 73.8627 51.4234 72.6474 51.4234 71.1486V65.3356C51.4234 63.8364 50.2081 62.6211 48.7089 62.6211Z" fill="#2A428C"/>
<path id="Vector_21" d="M26.2258 62.6211H20.4128C20.061 62.6211 19.7261 62.6903 19.4175 62.8118C20.4236 63.209 21.1367 64.1878 21.1367 65.3352V71.1482C21.1367 72.2957 20.4236 73.2745 19.4175 73.6717C19.7261 73.7936 20.061 73.8627 20.4128 73.8627H26.2258C27.7249 73.8627 28.9402 72.6474 28.9402 71.1486V65.3356C28.9399 63.8364 27.7246 62.6211 26.2258 62.6211Z" fill="#2A428C"/>
<path id="Vector_22" d="M26.2258 85.1045H20.4128C20.061 85.1045 19.7261 85.1737 19.4175 85.2952C20.4236 85.6924 21.1367 86.6712 21.1367 87.8186V93.632C21.1367 94.7794 20.4236 95.7582 19.4175 96.1554C19.7261 96.2773 20.061 96.3464 20.4128 96.3464H26.2258C27.7249 96.3464 28.9402 95.1312 28.9402 93.6323V87.819C28.9399 86.3198 27.7246 85.1045 26.2258 85.1045Z" fill="#2A428C"/>
<path id="Vector_23" d="M26.2258 107.588H20.4128C20.061 107.588 19.7261 107.657 19.4175 107.779C20.4236 108.176 21.1367 109.155 21.1367 110.302V116.115C21.1367 117.263 20.4236 118.242 19.4175 118.639C19.7261 118.761 20.061 118.83 20.4128 118.83H26.2258C27.7249 118.83 28.9402 117.615 28.9402 116.116V110.302C28.9399 108.803 27.7246 107.588 26.2258 107.588Z" fill="#2A428C"/>
<path id="Vector_24" d="M48.7089 85.1045H42.8959C42.5442 85.1045 42.2092 85.1737 41.9006 85.2952C42.9068 85.6924 43.6195 86.6712 43.6195 87.8186V93.632C43.6195 94.7794 42.9065 95.7582 41.9006 96.1554C42.2092 96.2773 42.5442 96.3464 42.8959 96.3464H48.7089C50.2081 96.3464 51.4234 95.1312 51.4234 93.6323V87.819C51.4234 86.3198 50.2081 85.1045 48.7089 85.1045Z" fill="#2A428C"/>
<path id="Vector_25" d="M48.7089 107.588H42.8959C42.5442 107.588 42.2092 107.657 41.9006 107.779C42.9068 108.176 43.6195 109.155 43.6195 110.302V116.115C43.6195 117.263 42.9065 118.242 41.9006 118.639C42.2092 118.761 42.5442 118.83 42.8959 118.83H48.7089C50.2081 118.83 51.4234 117.615 51.4234 116.116V110.302C51.4234 108.803 50.2081 107.588 48.7089 107.588Z" fill="#2A428C"/>
<path id="Vector_26" d="M71.1926 85.1045H65.3796C65.0278 85.1045 64.6929 85.1737 64.3843 85.2952C65.3904 85.6924 66.1035 86.6712 66.1035 87.8186V93.632C66.1035 94.7794 65.3904 95.7582 64.3843 96.1554C64.6929 96.2773 65.0278 96.3464 65.3796 96.3464H71.1926C72.6918 96.3464 73.907 95.1312 73.907 93.6323V87.819C73.9067 86.3198 72.6918 85.1045 71.1926 85.1045Z" fill="#2A428C"/>
<path id="Vector_27" d="M96.3902 96.3461V87.8186C96.3902 86.3195 95.1749 85.1045 93.6757 85.1045H87.8627C87.511 85.1045 87.176 85.1737 86.8674 85.2952C87.8736 85.6924 88.5866 86.6712 88.5866 87.8186V93.632C88.5866 94.7794 87.8736 95.7582 86.8674 96.1554C87.176 96.2773 87.511 96.3464 87.8627 96.3464H96.3902V96.3461Z" fill="#2A428C"/>
<path id="Vector_28" d="M71.1926 107.588H65.3796C65.0278 107.588 64.6929 107.657 64.3843 107.779C65.3904 108.176 66.1035 109.155 66.1035 110.302V116.115C66.1035 117.263 65.3904 118.242 64.3843 118.639C64.6929 118.761 65.0278 118.83 65.3796 118.83H71.1926C72.6918 118.83 73.907 117.615 73.907 116.116V110.302C73.9067 108.803 72.6918 107.588 71.1926 107.588Z" fill="#2A428C"/>
<path id="Vector_29" d="M144.797 48.1255V98.6069V130.071H152.606V98.6069V51.3791L144.797 48.1255Z" fill="#D3DCFB"/>
<path id="Vector_30" d="M152.606 51.3796V23.275C152.606 17.0665 147.573 12.0337 141.365 12.0337H17.6942C11.4856 12.0337 6.45288 17.0665 6.45288 23.275V51.3796H152.606Z" fill="#FF4155"/>
<g id="Group_4">
<g id="Group_5">
<g id="Group_6">
<path id="Vector_31" d="M41.8744 25.8196H34.5572C33.1516 25.8196 32.0127 24.6803 32.0127 23.275C32.0127 21.8697 33.1519 20.7305 34.5572 20.7305H41.8744C43.28 20.7305 44.4189 21.8697 44.4189 23.275C44.4189 24.6803 43.2797 25.8196 41.8744 25.8196Z" fill="#E80054"/>
</g>
<g id="Group_7">
<path id="Vector_32" d="M59.8509 25.8196H52.5338C51.1281 25.8196 49.9893 24.6803 49.9893 23.275C49.9893 21.8697 51.1285 20.7305 52.5338 20.7305H59.8509C61.2566 20.7305 62.3955 21.8697 62.3955 23.275C62.3955 24.6803 61.2566 25.8196 59.8509 25.8196Z" fill="#E80054"/>
</g>
<g id="Group_8">
<path id="Vector_33" d="M106.518 25.8196H99.2006C97.7949 25.8196 96.656 24.6803 96.656 23.275C96.656 21.8697 97.7952 20.7305 99.2006 20.7305H106.518C107.924 20.7305 109.063 21.8697 109.063 23.275C109.063 24.6803 107.924 25.8196 106.518 25.8196Z" fill="#E80054"/>
</g>
<g id="Group_9">
<path id="Vector_34" d="M124.495 25.8196H117.177C115.772 25.8196 114.633 24.6803 114.633 23.275C114.633 21.8697 115.772 20.7305 117.177 20.7305H124.495C125.9 20.7305 127.039 21.8697 127.039 23.275C127.039 24.6803 125.9 25.8196 124.495 25.8196Z" fill="#E80054"/>
</g>
</g>
</g>
<path id="Vector_35" d="M54.2302 21.8698C54.2302 25.7501 51.0846 28.8957 47.2042 28.8957C43.3238 28.8957 40.1782 25.7501 40.1782 21.8698V7.81748C40.1779 3.93711 43.3235 0.791504 47.2039 0.791504C51.0842 0.791504 54.2298 3.93711 54.2298 7.81748V21.8698H54.2302Z" fill="#EBF5FC"/>
<path id="Vector_36" d="M118.874 21.8698C118.874 25.7501 115.728 28.8957 111.848 28.8957C107.967 28.8957 104.822 25.7501 104.822 21.8698V7.81748C104.822 3.93711 107.967 0.791504 111.848 0.791504C115.728 0.791504 118.874 3.93711 118.874 7.81748V21.8698H118.874Z" fill="#EBF5FC"/>
<path id="Vector_37" d="M111.848 0.791504C110.405 0.791504 109.065 1.22756 107.949 1.9732C109.835 3.23329 111.078 5.37965 111.078 7.81781V21.8698C111.078 24.3076 109.835 26.4543 107.949 27.7144C109.065 28.4597 110.405 28.8961 111.848 28.8961C115.728 28.8961 118.874 25.7505 118.874 21.8701V7.81748C118.874 3.93711 115.728 0.791504 111.848 0.791504V0.791504Z" fill="#D3DCFB"/>
<path id="Vector_38" d="M47.2038 0.791504C45.7613 0.791504 44.4215 1.22756 43.3057 1.9732C45.1912 3.23329 46.4338 5.37965 46.4338 7.81781V21.8698C46.4338 24.3076 45.1912 26.4543 43.3057 27.7144C44.4212 28.4597 45.7613 28.8961 47.2038 28.8961C51.0842 28.8961 54.2298 25.7505 54.2298 21.8701V7.81748C54.2301 3.93711 51.0845 0.791504 47.2038 0.791504V0.791504Z" fill="#D3DCFB"/>
<path id="Vector_39" d="M141.365 12.0332H133.559C139.767 12.0332 144.8 17.066 144.8 23.2745V51.3794H152.606V23.2748C152.606 17.0663 147.573 12.0332 141.365 12.0332Z" fill="#E80054"/>
<path id="Vector_40" d="M6.45264 37.5928H152.606V42.6822H6.45264V37.5928Z" fill="#E80054"/>
</g>
<path id="Vector_41" d="M121.686 169.418C144.968 169.418 163.843 150.543 163.843 127.261C163.843 103.979 144.968 85.1045 121.686 85.1045C98.4037 85.1045 79.5295 103.979 79.5295 127.261C79.5295 150.543 98.4037 169.418 121.686 169.418Z" fill="#4FABF7"/>
<path id="Vector_42" d="M121.686 158.176C138.76 158.176 152.601 144.335 152.601 127.261C152.601 110.187 138.76 96.3462 121.686 96.3462C104.612 96.3462 90.7712 110.187 90.7712 127.261C90.7712 144.335 104.612 158.176 121.686 158.176Z" fill="#EBF5FC"/>
<g id="Group_10">
<g id="Group_11">
<path id="Vector_43" d="M121.686 124.185C120.28 124.185 119.142 123.046 119.142 121.64V107.588C119.142 106.183 120.281 105.043 121.686 105.043C123.092 105.043 124.231 106.183 124.231 107.588V121.64C124.231 123.046 123.091 124.185 121.686 124.185Z" fill="#3C58A0"/>
</g>
</g>
<g id="Group_12">
<g id="Group_13">
<path id="Vector_44" d="M135.738 129.805H127.307C125.901 129.805 124.762 128.666 124.762 127.261C124.762 125.856 125.901 124.716 127.307 124.716H135.738C137.144 124.716 138.283 125.856 138.283 127.261C138.283 128.666 137.144 129.805 135.738 129.805Z" fill="#3C58A0"/>
</g>
</g>
<path id="Vector_45" d="M121.686 85.1045C120.37 85.1045 119.069 85.1681 117.784 85.286C139.237 87.2551 156.039 105.295 156.039 127.261C156.039 149.228 139.237 167.267 117.784 169.236C119.069 169.354 120.37 169.418 121.686 169.418C144.968 169.418 163.842 150.543 163.842 127.261C163.842 103.979 144.968 85.1045 121.686 85.1045Z" fill="#1886EA"/>
<path id="Vector_46" d="M121.686 96.3462C120.366 96.3462 119.064 96.4295 117.787 96.5902C133.02 98.5074 144.803 111.508 144.803 127.261C144.803 143.014 133.02 156.015 117.787 157.932C119.064 158.093 120.366 158.176 121.686 158.176C138.76 158.176 152.601 144.335 152.601 127.261C152.601 110.187 138.76 96.3462 121.686 96.3462Z" fill="#D3DCFB"/>
<path id="Vector_47" d="M121.686 132.882C124.791 132.882 127.307 130.365 127.307 127.261C127.307 124.157 124.791 121.64 121.686 121.64C118.582 121.64 116.065 124.157 116.065 127.261C116.065 130.365 118.582 132.882 121.686 132.882Z" fill="#FFDD40"/>
</g>
</g>
<defs>
<clipPath id="clip0_437_938">
<rect width="168.626" height="168.626" fill="white" transform="translate(0.834717 0.791504)"/>
</clipPath>
</defs>
</svg>
