<svg width="16" height="16" viewBox="0 0 16 16" fill="none" xmlns="http://www.w3.org/2000/svg">
<g id="vuesax/linear/ticket-star">
<g id="ticket-star">
<path id="Vector" d="M11.3298 2.6665H4.66309C2.10976 2.6665 1.39643 3.27984 1.33643 5.6665C2.62309 5.6665 3.66309 6.71317 3.66309 7.99984C3.66309 9.2865 2.62309 10.3265 1.33643 10.3332C1.39643 12.7198 2.10976 13.3332 4.66309 13.3332H11.3298C13.9964 13.3332 14.6631 12.6665 14.6631 9.99984V5.99984C14.6631 3.33317 13.9964 2.6665 11.3298 2.6665Z" stroke="#404144" stroke-width="1.5" stroke-linecap="round" stroke-linejoin="round"/>
<path id="Vector_2" d="M5.99561 2.6665V4.99984" stroke="#404144" stroke-width="1.5" stroke-linecap="round" stroke-linejoin="round"/>
<path id="Vector_3" d="M5.99561 11V13.3333" stroke="#404144" stroke-width="1.5" stroke-linecap="round" stroke-linejoin="round"/>
<path id="Vector_4" d="M10.0165 6.21994L10.4298 7.05327C10.4698 7.13327 10.5498 7.19327 10.6365 7.20661L11.5565 7.33994C11.7832 7.37327 11.8765 7.65327 11.7098 7.81327L11.0432 8.45994C10.9765 8.51994 10.9498 8.61327 10.9632 8.70661L11.1232 9.61994C11.1632 9.84661 10.9232 10.0199 10.7232 9.91327L9.90318 9.47994C9.82318 9.43994 9.72318 9.43994 9.64318 9.47994L8.82318 9.91327C8.61651 10.0199 8.38318 9.84661 8.42318 9.61994L8.58318 8.70661C8.59651 8.61327 8.56985 8.52661 8.50318 8.45994L7.84318 7.81327C7.67652 7.65327 7.76985 7.37327 7.99651 7.33994L8.91651 7.20661C9.00985 7.19327 9.08318 7.13994 9.12318 7.05327L9.52985 6.21994C9.62318 6.01327 9.91651 6.01327 10.0165 6.21994Z" stroke="#404144" stroke-width="1.5" stroke-linecap="round" stroke-linejoin="round"/>
</g>
</g>
</svg>
