<svg width="38" height="24" viewBox="0 0 38 24" fill="none" xmlns="http://www.w3.org/2000/svg">
<g id="Visa">
<rect id="Rectangle" x="0.5" y="0.5" width="37" height="23" rx="3.5" fill="#333333" stroke="#333333"/>
<path id="polygon9" d="M16.8719 16.46H14.3419L15.9243 8.05957H18.4541L16.8719 16.46Z" fill="#EAE9FC"/>
<path id="path11" d="M26.043 8.26487C25.544 8.0949 24.7525 7.90723 23.7738 7.90723C21.2754 7.90723 19.5161 9.05105 19.5053 10.6864C19.4845 11.8929 20.7649 12.5631 21.7226 12.9654C22.7014 13.3765 23.0341 13.6448 23.0341 14.0112C23.0241 14.574 22.2432 14.8334 21.5148 14.8334C20.5047 14.8334 19.9635 14.6996 19.141 14.3865L18.8079 14.2523L18.4539 16.138C19.0472 16.3701 20.1404 16.5761 21.2754 16.5851C23.93 16.5851 25.6582 15.459 25.6787 13.7163C25.6888 12.76 25.0127 12.0273 23.5551 11.4285C22.6702 11.0441 22.1283 10.785 22.1283 10.3917C22.1387 10.0342 22.5867 9.66799 23.5855 9.66799C24.408 9.65005 25.0123 9.81978 25.4701 9.98964L25.6989 10.0788L26.043 8.26487Z" fill="#EAE9FC"/>
<path id="path13" fill-rule="evenodd" clip-rule="evenodd" d="M30.5715 8.05957H32.5285L34.5695 16.4599H32.227C32.227 16.4599 31.9978 15.4947 31.9251 15.1998H28.6769C28.583 15.4231 28.1459 16.4599 28.1459 16.4599H25.4913L29.2492 8.75656C29.5096 8.21137 29.9681 8.05957 30.5715 8.05957ZM30.4157 11.1337C30.4157 11.1337 29.614 13.0014 29.4056 13.484H31.5085C31.4044 13.064 30.9254 11.0532 30.9254 11.0532L30.7485 10.3294C30.6741 10.5158 30.5664 10.7721 30.4938 10.9449C30.4446 11.0621 30.4114 11.1409 30.4157 11.1337Z" fill="#EAE9FC"/>
<path id="Combined Shape" fill-rule="evenodd" clip-rule="evenodd" d="M3.38002 8.05957H7.45045C8.00217 8.07727 8.44986 8.22918 8.59554 8.7657L9.48006 12.625C9.48019 12.6253 9.48032 12.6257 9.48045 12.6261L9.75119 13.7879L12.2288 8.05957H14.904L10.9274 16.4511H8.25207L5.99714 9.15188C5.21912 8.76136 4.33116 8.44727 3.33838 8.2293L3.38002 8.05957Z" fill="#EAE9FC"/>
</g>
</svg>
